<svg width="19" height="15" viewBox="0 0 19 15" fill="none" xmlns="http://www.w3.org/2000/svg">
<path d="M1.58331 3.54166L8.04721 8.06638C8.57063 8.43278 8.83235 8.61598 9.11702 8.68694C9.36848 8.74962 9.63148 8.74962 9.88294 8.68694C10.1676 8.61598 10.4293 8.43278 10.9528 8.06638L17.4166 3.54166M5.38331 13.8333H13.6166C14.9468 13.8333 15.6118 13.8333 16.1199 13.5745C16.5668 13.3468 16.9301 12.9834 17.1578 12.5366C17.4166 12.0285 17.4166 11.3634 17.4166 10.0333V4.96666C17.4166 3.63653 17.4166 2.97147 17.1578 2.46343C16.9301 2.01654 16.5668 1.65322 16.1199 1.42552C15.6118 1.16666 14.9468 1.16666 13.6166 1.16666H5.38331C4.05319 1.16666 3.38813 1.16666 2.88009 1.42552C2.4332 1.65322 2.06987 2.01654 1.84217 2.46343C1.58331 2.97147 1.58331 3.63653 1.58331 4.96666V10.0333C1.58331 11.3634 1.58331 12.0285 1.84217 12.5366C2.06987 12.9834 2.4332 13.3468 2.88009 13.5745C3.38813 13.8333 4.05319 13.8333 5.38331 13.8333Z" stroke="#24292F" stroke-width="1.5" stroke-linecap="round" stroke-linejoin="round"/>
</svg>
