<svg width="17" height="17" viewBox="0 0 17 17" fill="none" xmlns="http://www.w3.org/2000/svg">
<path d="M5.63439 6.00881C6.18538 7.15643 6.93651 8.23202 7.88776 9.18327C8.83901 10.1345 9.9146 10.8856 11.0622 11.4366C11.1609 11.484 11.2103 11.5077 11.2727 11.5259C11.4947 11.5906 11.7672 11.5442 11.9552 11.4096C12.0081 11.3717 12.0533 11.3264 12.1438 11.236C12.4206 10.9592 12.559 10.8208 12.6981 10.7303C13.2229 10.3891 13.8995 10.3891 14.4243 10.7303C14.5634 10.8208 14.7018 10.9592 14.9786 11.236L15.1328 11.3902C15.5536 11.8109 15.7639 12.0213 15.8782 12.2472C16.1055 12.6966 16.1055 13.2272 15.8782 13.6765C15.7639 13.9024 15.5536 14.1128 15.1328 14.5335L15.0081 14.6583C14.5888 15.0776 14.3791 15.2872 14.0941 15.4474C13.7778 15.625 13.2866 15.7528 12.9238 15.7517C12.5969 15.7507 12.3735 15.6873 11.9266 15.5605C9.52521 14.8789 7.25917 13.5928 5.36869 11.7023C3.4782 9.81185 2.19216 7.54582 1.51056 5.14438C1.38373 4.69752 1.32032 4.4741 1.31934 4.14718C1.31826 3.78442 1.44601 3.2932 1.62367 2.97692C1.78379 2.6919 1.99343 2.48226 2.41271 2.06297L2.53751 1.93818C2.95823 1.51745 3.1686 1.30709 3.39452 1.19282C3.84384 0.965553 4.37447 0.965553 4.82379 1.19282C5.04971 1.30709 5.26008 1.51745 5.6808 1.93818L5.83507 2.09245C6.11185 2.36922 6.25023 2.50761 6.34071 2.64676C6.68191 3.17155 6.68191 3.8481 6.34071 4.37288C6.25023 4.51204 6.11185 4.65043 5.83507 4.9272C5.74458 5.0177 5.69933 5.06294 5.66145 5.11584C5.52686 5.3038 5.48039 5.57634 5.54509 5.79829C5.56329 5.86074 5.58699 5.9101 5.63439 6.00881Z" stroke="#24292F" stroke-width="1.5" stroke-linecap="round" stroke-linejoin="round"/>
</svg>
